<svg width="32" height="36" viewBox="0 0 32 36" fill="none" xmlns="http://www.w3.org/2000/svg">
<path d="M30 33.75V35.25C30.8284 35.25 31.5 34.5784 31.5 33.75H30ZM2 33.75H0.5C0.5 34.5784 1.17157 35.25 2 35.25L2 33.75ZM9 24.75H23V21.75H9V24.75ZM28.5 30.25V33.75H31.5V30.25H28.5ZM3.5 33.75V30.25H0.5V33.75H3.5ZM23 24.75C26.0376 24.75 28.5 27.2124 28.5 30.25H31.5C31.5 25.5556 27.6944 21.75 23 21.75V24.75ZM9 21.75C4.30558 21.75 0.5 25.5556 0.5 30.25H3.5C3.5 27.2124 5.96243 24.75 9 24.75V21.75ZM21.5 9.25C21.5 12.2876 19.0376 14.75 16 14.75V17.75C20.6944 17.75 24.5 13.9444 24.5 9.25H21.5ZM16 14.75C12.9624 14.75 10.5 12.2876 10.5 9.25H7.5C7.5 13.9444 11.3056 17.75 16 17.75V14.75ZM10.5 9.25C10.5 6.21243 12.9624 3.75 16 3.75V0.75C11.3056 0.75 7.5 4.55558 7.5 9.25H10.5ZM16 3.75C19.0376 3.75 21.5 6.21243 21.5 9.25H24.5C24.5 4.55558 20.6944 0.75 16 0.75V3.75ZM2 35.25H30V32.25H2V35.25Z" fill="#FD9644"/>
</svg>
