<svg width="32" height="34" viewBox="0 0 32 34" fill="none" xmlns="http://www.w3.org/2000/svg">
<path d="M7.49991 16.2675C7.49991 17.0959 8.17148 17.7675 8.99991 17.7675C9.82834 17.7675 10.4999 17.0959 10.4999 16.2675H7.49991ZM10.4999 16.25C10.4999 15.4216 9.82834 14.75 8.99991 14.75C8.17148 14.75 7.49991 15.4216 7.49991 16.25H10.4999ZM21.4999 16.2675C21.4999 17.0959 22.1715 17.7675 22.9999 17.7675C23.8283 17.7675 24.4999 17.0959 24.4999 16.2675H21.4999ZM24.4999 16.25C24.4999 15.4216 23.8283 14.75 22.9999 14.75C22.1715 14.75 21.4999 15.4216 21.4999 16.25H24.4999ZM20.9497 4.30025L19.889 5.36091L19.889 5.36091L20.9497 4.30025ZM11.0502 4.30025L12.1108 5.36091L12.1108 5.36091L11.0502 4.30025ZM28.5174 14.2093L27.0225 14.3339L27.0225 14.3339L28.5174 14.2093ZM29.684 28.2093L31.1788 28.0848L31.1788 28.0848L29.684 28.2093ZM2.3158 28.2093L3.81062 28.3339L2.3158 28.2093ZM3.48247 14.2093L4.97728 14.3339L3.48247 14.2093ZM10.4999 16.2675V16.25H7.49991V16.2675H10.4999ZM24.4999 16.2675V16.25H21.4999V16.2675H24.4999ZM24.4999 9.25C24.4999 6.99566 23.6044 4.83365 22.0103 3.23959L19.889 5.36091C20.9204 6.39236 21.4999 7.79131 21.4999 9.25H24.4999ZM22.0103 3.23959C20.4163 1.64553 18.2542 0.75 15.9999 0.75V3.75C17.4586 3.75 18.8575 4.32946 19.889 5.36091L22.0103 3.23959ZM15.9999 0.75C13.7456 0.75 11.5836 1.64553 9.9895 3.23959L12.1108 5.36091C13.1423 4.32946 14.5412 3.75 15.9999 3.75V0.75ZM9.9895 3.23959C8.39544 4.83365 7.49991 6.99566 7.49991 9.25H10.4999C10.4999 7.79131 11.0794 6.39236 12.1108 5.36091L9.9895 3.23959ZM7.49991 9.25V11H10.4999V9.25H7.49991ZM21.4999 9.25V11H24.4999V9.25H21.4999ZM27.0225 14.3339L28.1892 28.3339L31.1788 28.0848L30.0122 14.0848L27.0225 14.3339ZM26.1961 30.5H5.80371V33.5H26.1961V30.5ZM3.81062 28.3339L4.97728 14.3339L1.98765 14.0848L0.82098 28.0848L3.81062 28.3339ZM5.80371 30.5C4.63363 30.5 3.71345 29.5 3.81062 28.3339L0.82098 28.0848C0.578055 30.9999 2.87851 33.5 5.80371 33.5V30.5ZM28.1892 28.3339C28.2864 29.5 27.3662 30.5 26.1961 30.5V33.5C29.1213 33.5 31.4218 30.9999 31.1788 28.0848L28.1892 28.3339ZM25.0294 12.5C26.0696 12.5 26.9362 13.2973 27.0225 14.3339L30.0122 14.0848C29.7962 11.4933 27.6299 9.5 25.0294 9.5V12.5ZM6.97038 9.5C4.36993 9.5 2.2036 11.4933 1.98765 14.0848L4.97728 14.3339C5.06367 13.2973 5.9302 12.5 6.97038 12.5V9.5ZM6.97038 12.5H8.99991V9.5H6.97038V12.5ZM8.99991 12.5H22.9999V9.5H8.99991V12.5ZM22.9999 12.5H25.0294V9.5H22.9999V12.5Z" fill="#FD9644"/>
</svg>
